<?xml version="1.0" standalone="no"?>
<!DOCTYPE svg PUBLIC "-//W3C//DTD SVG 20010904//EN"
 "http://www.w3.org/TR/2001/REC-SVG-20010904/DTD/svg10.dtd">
<svg version="1.0" xmlns="http://www.w3.org/2000/svg"
 width="564.000000pt" height="564.000000pt" viewBox="0 0 564.000000 564.000000"
 preserveAspectRatio="xMidYMid meet">

<g transform="translate(0.000000,564.000000) scale(0.100000,-0.100000)"
fill="#000000" stroke="none">
<path d="M1630 3774 c-54 -10 -181 -58 -200 -76 -15 -14 -20 -32 -20 -73 0
-34 5 -55 12 -57 7 -3 51 9 98 26 75 27 98 30 195 31 93 0 115 -3 145 -20 55
-33 73 -75 78 -178 l5 -89 -54 8 c-30 5 -112 9 -184 9 -115 0 -136 -3 -183
-24 -63 -29 -147 -116 -162 -169 -13 -50 -13 -156 2 -203 15 -51 68 -112 126
-147 43 -25 56 -27 152 -27 93 0 112 3 162 27 31 14 78 46 104 70 26 23 49 39
51 33 2 -5 17 -31 33 -57 40 -63 65 -69 125 -28 26 18 49 39 52 47 3 8 -5 36
-18 62 -22 44 -23 59 -30 321 -7 302 -14 345 -71 414 -16 19 -58 50 -95 68
-61 30 -73 32 -182 34 -64 1 -127 0 -141 -2z m277 -553 c26 -7 28 -12 31 -61
2 -33 -3 -71 -13 -97 -42 -108 -213 -177 -314 -125 -55 27 -76 64 -76 130 1
90 40 139 131 161 40 10 192 5 241 -8z"/>
<path d="M3829 3767 c-194 -55 -286 -243 -193 -393 47 -77 96 -107 261 -160
181 -59 219 -86 217 -159 -1 -36 -7 -52 -30 -76 -64 -66 -229 -77 -376 -24
-111 41 -112 40 -116 -27 -2 -47 1 -60 19 -77 30 -28 132 -60 221 -70 270 -29
458 90 458 290 0 53 -5 77 -28 119 -38 73 -97 112 -241 157 -199 62 -241 91
-241 169 0 52 41 99 98 111 72 15 184 6 265 -22 42 -14 81 -23 87 -20 5 3 10
30 10 59 0 64 -12 77 -96 107 -74 27 -246 35 -315 16z"/>
<path d="M2220 3733 c0 -21 56 -214 145 -503 35 -113 76 -248 90 -300 33 -119
45 -130 136 -130 91 0 99 9 128 140 31 140 140 583 145 588 2 2 16 -50 31
-115 77 -335 145 -588 161 -600 26 -19 148 -17 168 3 9 8 40 93 70 187 159
501 216 691 216 717 l0 30 -80 0 c-77 0 -80 -1 -93 -27 -8 -16 -54 -184 -103
-375 -48 -192 -91 -342 -95 -335 -6 11 -54 211 -134 556 -20 85 -41 161 -47
168 -7 9 -38 13 -94 13 -78 0 -85 -2 -94 -22 -8 -20 -130 -519 -161 -660 -6
-27 -14 -48 -17 -48 -4 0 -47 159 -95 353 -49 193 -93 357 -99 364 -7 9 -39
13 -94 13 -73 0 -84 -2 -84 -17z"/>
</g>
</svg>
